<svg xmlns="http://www.w3.org/2000/svg" xmlns:xlink="http://www.w3.org/1999/xlink" width="800" height="600" viewBox="0 0 2748 1806" role="img" aria-label="LoRaBug v4 MECHANICAL16 — current misassigned output" class="altium-pcb" data-renderer="altiumts">
  <title>LoRaBug v4 MECHANICAL16 — current misassigned output</title>
  <rect width="100%" height="100%" fill="#071a16"/>
  <g stroke-linecap="round" stroke-linejoin="round">
    <polygon data-record="BoardOutline" points="0,903 0,295 384,295 462,217 462,0 2345,0 2345,217 2423,295 2748,295 2748,1511 2423,1511 2345,1589 2345,1806 462,1806 462,1589 384,1511 0,1511 0,903" fill="#123d32" stroke="#6ee7b7" stroke-width="3"/>
    <rect data-record="Fill" data-layer="MECHANICAL16" data-keepout="false" x="247" y="369.1" width="19.69" height="37.4" fill="#26e9ff" fill-opacity="0.6" transform="rotate(-360 256.845 387.8)"/>
    <rect data-record="Fill" data-layer="MECHANICAL16" data-keepout="false" x="293" y="369.1" width="19.69" height="37.4" fill="#26e9ff" fill-opacity="0.6" transform="rotate(-360 302.845 387.8)"/>
    <rect data-record="Fill" data-layer="MECHANICAL16" data-keepout="false" x="1824.955" y="49.455" width="19.69" height="37.4" fill="#26e9ff" fill-opacity="0.6" transform="rotate(-90 1834.8 68.155)"/>
    <rect data-record="Fill" data-layer="MECHANICAL16" data-keepout="false" x="1824.955" y="95.455" width="19.69" height="37.4" fill="#26e9ff" fill-opacity="0.6" transform="rotate(-90 1834.8 114.155)"/>
    <rect data-record="Fill" data-layer="MECHANICAL16" data-keepout="false" x="1879.955" y="49.455" width="19.69" height="37.4" fill="#26e9ff" fill-opacity="0.6" transform="rotate(-90 1889.8 68.155)"/>
    <rect data-record="Fill" data-layer="MECHANICAL16" data-keepout="false" x="1879.955" y="95.455" width="19.69" height="37.4" fill="#26e9ff" fill-opacity="0.6" transform="rotate(-90 1889.8 114.155)"/>
    <rect data-record="Fill" data-layer="MECHANICAL16" data-keepout="false" x="1744" y="314.1" width="19.69" height="37.4" fill="#26e9ff" fill-opacity="0.6" transform="rotate(-360 1753.845 332.8)"/>
    <rect data-record="Fill" data-layer="MECHANICAL16" data-keepout="false" x="1790" y="314.1" width="19.69" height="37.4" fill="#26e9ff" fill-opacity="0.6" transform="rotate(-360 1799.845 332.8)"/>
    <line data-record="Track" data-layer="MECHANICAL16" x1="265.98" y1="370.99" x2="294.02" y2="370.99" stroke="#26e9ff" stroke-width="4"/>
    <line data-record="Track" data-layer="MECHANICAL16" x1="265.98" y1="404.5" x2="294.02" y2="404.5" stroke="#26e9ff" stroke-width="4"/>
    <line data-record="Track" data-layer="MECHANICAL16" x1="1851.5" y1="105.02" x2="1851.5" y2="76.98" stroke="#26e9ff" stroke-width="4"/>
    <line data-record="Track" data-layer="MECHANICAL16" x1="1817.99" y1="105.02" x2="1817.99" y2="76.98" stroke="#26e9ff" stroke-width="4"/>
    <line data-record="Track" data-layer="MECHANICAL16" x1="1906.5" y1="105.02" x2="1906.5" y2="76.98" stroke="#26e9ff" stroke-width="4"/>
    <line data-record="Track" data-layer="MECHANICAL16" x1="1872.99" y1="105.02" x2="1872.99" y2="76.98" stroke="#26e9ff" stroke-width="4"/>
    <line data-record="Track" data-layer="MECHANICAL16" x1="1207.7401" y1="1520.8189" x2="1207.7401" y2="1501.1339" stroke="#26e9ff" stroke-width="1"/>
    <line data-record="Track" data-layer="MECHANICAL16" x1="1045.9291" y1="1520.8189" x2="1045.9291" y2="1501.1339" stroke="#26e9ff" stroke-width="1"/>
    <line data-record="Track" data-layer="MECHANICAL16" x1="1762.98" y1="315.99" x2="1791.02" y2="315.99" stroke="#26e9ff" stroke-width="4"/>
    <line data-record="Track" data-layer="MECHANICAL16" x1="1762.98" y1="349.5" x2="1791.02" y2="349.5" stroke="#26e9ff" stroke-width="4"/>
    <line data-record="Track" data-layer="MECHANICAL16" x1="217" y1="361" x2="343" y2="361" stroke="#26e9ff" stroke-width="2"/>
    <line data-record="Track" data-layer="MECHANICAL16" x1="343" y1="415" x2="343" y2="361" stroke="#26e9ff" stroke-width="2"/>
    <line data-record="Track" data-layer="MECHANICAL16" x1="217" y1="415" x2="343" y2="415" stroke="#26e9ff" stroke-width="2"/>
    <line data-record="Track" data-layer="MECHANICAL16" x1="217" y1="415" x2="217" y2="361" stroke="#26e9ff" stroke-width="2"/>
    <line data-record="Track" data-layer="MECHANICAL16" x1="1808" y1="154" x2="1862" y2="154" stroke="#26e9ff" stroke-width="2"/>
    <line data-record="Track" data-layer="MECHANICAL16" x1="1862" y1="154" x2="1862" y2="28" stroke="#26e9ff" stroke-width="2"/>
    <line data-record="Track" data-layer="MECHANICAL16" x1="1808" y1="28" x2="1862" y2="28" stroke="#26e9ff" stroke-width="2"/>
    <line data-record="Track" data-layer="MECHANICAL16" x1="1808" y1="154" x2="1808" y2="28" stroke="#26e9ff" stroke-width="2"/>
    <line data-record="Track" data-layer="MECHANICAL16" x1="1863" y1="154" x2="1917" y2="154" stroke="#26e9ff" stroke-width="2"/>
    <line data-record="Track" data-layer="MECHANICAL16" x1="1917" y1="154" x2="1917" y2="28" stroke="#26e9ff" stroke-width="2"/>
    <line data-record="Track" data-layer="MECHANICAL16" x1="1863" y1="28" x2="1917" y2="28" stroke="#26e9ff" stroke-width="2"/>
    <line data-record="Track" data-layer="MECHANICAL16" x1="1863" y1="154" x2="1863" y2="28" stroke="#26e9ff" stroke-width="2"/>
    <line data-record="Track" data-layer="MECHANICAL16" x1="1714" y1="306" x2="1840" y2="306" stroke="#26e9ff" stroke-width="2"/>
    <line data-record="Track" data-layer="MECHANICAL16" x1="1840" y1="360" x2="1840" y2="306" stroke="#26e9ff" stroke-width="2"/>
    <line data-record="Track" data-layer="MECHANICAL16" x1="1714" y1="360" x2="1840" y2="360" stroke="#26e9ff" stroke-width="2"/>
    <line data-record="Track" data-layer="MECHANICAL16" x1="1714" y1="360" x2="1714" y2="306" stroke="#26e9ff" stroke-width="2"/>
    <text data-record="Text" data-layer="MECHANICAL16" x="0" y="0" fill="#26e9ff" font-family="Arial, sans-serif" font-size="7.874" font-weight="normal" font-style="normal" text-anchor="start" dominant-baseline="text-after-edge" transform="translate(1161.7338 1086.3891) rotate(-360) scale(1 1)">JOANNA MINKIEWICZ</text>
    <text data-record="Text" data-layer="MECHANICAL16" x="0" y="0" fill="#26e9ff" font-family="Arial, sans-serif" font-size="7.874" font-weight="normal" font-style="normal" text-anchor="start" dominant-baseline="text-after-edge" transform="translate(1062.8168 1058.57) rotate(-270) scale(1 1)">ROBERT GABRYSIAK</text>
    <text data-record="Text" data-layer="MECHANICAL16" x="0" y="0" fill="#26e9ff" font-family="Arial, sans-serif" font-size="7.874" font-weight="normal" font-style="normal" text-anchor="start" dominant-baseline="text-after-edge" transform="translate(1062.8171 1183.3136) rotate(-270) scale(1 1)">ROBERT GABRYSIAK</text>
    <text data-record="Text" data-layer="MECHANICAL16" x="0" y="0" fill="#26e9ff" font-family="Arial, sans-serif" font-size="7.874" font-weight="normal" font-style="normal" text-anchor="start" dominant-baseline="text-after-edge" transform="translate(1086.9535 920.5032) rotate(-270) scale(1 1)">ROBERT GABRYSIAK</text>
    <text data-record="Text" data-layer="MECHANICAL16" x="0" y="0" fill="#26e9ff" font-family="Arial, sans-serif" font-size="7.874" font-weight="normal" font-style="normal" text-anchor="start" dominant-baseline="text-after-edge" transform="translate(1063.865 912.5974) rotate(-180) scale(1 1)">ROBERT GABRYSIAK</text>
    <text data-record="Text" data-layer="MECHANICAL16" x="0" y="0" fill="#26e9ff" font-family="Arial, sans-serif" font-size="7.874" font-weight="normal" font-style="normal" text-anchor="start" dominant-baseline="text-after-edge" transform="translate(1046.2512 1445.9273) rotate(-90) scale(1 1)">ROBERT GABRYSIAK</text>
    <text data-record="Text" data-layer="MECHANICAL16" x="0" y="0" fill="#26e9ff" font-family="Arial, sans-serif" font-size="7.874" font-weight="normal" font-style="normal" text-anchor="start" dominant-baseline="text-after-edge" transform="translate(873.1181 370.2363) rotate(-180) scale(1 1)">ROBERT GABRYSIAK</text>
    <text data-record="Text" data-layer="MECHANICAL16" x="0" y="0" fill="#26e9ff" font-family="Arial, sans-serif" font-size="7.874" font-weight="normal" font-style="normal" text-anchor="start" dominant-baseline="text-after-edge" transform="translate(1391 1097) rotate(-180) scale(1 1)">ROBERT GABRYSIAK</text>
    <text data-record="Text" data-layer="MECHANICAL16" x="0" y="0" fill="#26e9ff" font-family="Arial, sans-serif" font-size="7.874" font-weight="normal" font-style="normal" text-anchor="start" dominant-baseline="text-after-edge" transform="translate(744.748 1321) rotate(-90) scale(1 1)">MICHAL BLACHUCKI</text>
    <text data-record="Text" data-layer="MECHANICAL16" x="0" y="0" fill="#26e9ff" font-family="Arial, sans-serif" font-size="7.874" font-weight="normal" font-style="normal" text-anchor="start" dominant-baseline="text-after-edge" transform="translate(635.8897 1570.3071) rotate(-180) scale(-1 1)">MICHAL BLACHUCKI</text>
    <text data-record="Text" data-layer="MECHANICAL16" x="0" y="0" fill="#26e9ff" font-family="Arial, sans-serif" font-size="7.874" font-weight="normal" font-style="normal" text-anchor="start" dominant-baseline="text-after-edge" transform="translate(1161.7338 1070.641) rotate(-360) scale(1 1)">ROBERT MITAL</text>
    <text data-record="Text" data-layer="MECHANICAL16" x="0" y="0" fill="#26e9ff" font-family="Arial, sans-serif" font-size="7.874" font-weight="normal" font-style="normal" text-anchor="start" dominant-baseline="text-after-edge" transform="translate(1052.9743 1058.57) rotate(-270) scale(1 1)">JOHAN ANDERSSON</text>
    <text data-record="Text" data-layer="MECHANICAL16" x="0" y="0" fill="#26e9ff" font-family="Arial, sans-serif" font-size="7.874" font-weight="normal" font-style="normal" text-anchor="start" dominant-baseline="text-after-edge" transform="translate(1052.9746 1183.3136) rotate(-270) scale(1 1)">JOHAN ANDERSSON</text>
    <text data-record="Text" data-layer="MECHANICAL16" x="0" y="0" fill="#26e9ff" font-family="Arial, sans-serif" font-size="7.874" font-weight="normal" font-style="normal" text-anchor="start" dominant-baseline="text-after-edge" transform="translate(1077.111 920.5032) rotate(-270) scale(1 1)">JOHAN ANDERSSON</text>
    <text data-record="Text" data-layer="MECHANICAL16" x="0" y="0" fill="#26e9ff" font-family="Arial, sans-serif" font-size="7.874" font-weight="normal" font-style="normal" text-anchor="start" dominant-baseline="text-after-edge" transform="translate(1063.865 902.7549) rotate(-180) scale(1 1)">JOHAN ANDERSSON</text>
    <text data-record="Text" data-layer="MECHANICAL16" x="0" y="0" fill="#26e9ff" font-family="Arial, sans-serif" font-size="7.874" font-weight="normal" font-style="normal" text-anchor="start" dominant-baseline="text-after-edge" transform="translate(1056.0937 1445.9273) rotate(-90) scale(1 1)">JOHAN ANDERSSON</text>
    <text data-record="Text" data-layer="MECHANICAL16" x="0" y="0" fill="#26e9ff" font-family="Arial, sans-serif" font-size="7.874" font-weight="normal" font-style="normal" text-anchor="start" dominant-baseline="text-after-edge" transform="translate(871.5433 359.2126) rotate(-180) scale(1 1)">JOHAN ANDERSSON</text>
    <text data-record="Text" data-layer="MECHANICAL16" x="0" y="0" fill="#26e9ff" font-family="Arial, sans-serif" font-size="7.874" font-weight="normal" font-style="normal" text-anchor="start" dominant-baseline="text-after-edge" transform="translate(1393 1109) rotate(-180) scale(1 1)">JOHAN ANDERSSON</text>
    <text data-record="Text" data-layer="MECHANICAL16" x="0" y="0" fill="#26e9ff" font-family="Arial, sans-serif" font-size="7.874" font-weight="normal" font-style="normal" text-anchor="start" dominant-baseline="text-after-edge" transform="translate(729 1321) rotate(-90) scale(1 1)">ROBERT MITAL</text>
    <text data-record="Text" data-layer="MECHANICAL16" x="0" y="0" fill="#26e9ff" font-family="Arial, sans-serif" font-size="7.874" font-weight="normal" font-style="normal" text-anchor="start" dominant-baseline="text-after-edge" transform="translate(635.8897 1586.0552) rotate(-180) scale(-1 1)">ROBERT MITAL</text>
    <text data-record="Text" data-layer="MECHANICAL16" x="0" y="0" fill="#26e9ff" font-family="Arial, sans-serif" font-size="7.874" font-weight="normal" font-style="normal" text-anchor="start" dominant-baseline="text-after-edge" transform="translate(1161.7338 1100.1686) rotate(-360) scale(1 1)">2011-03-09</text>
    <text data-record="Text" data-layer="MECHANICAL16" x="0" y="0" fill="#26e9ff" font-family="Arial, sans-serif" font-size="7.874" font-weight="normal" font-style="normal" text-anchor="start" dominant-baseline="text-after-edge" transform="translate(1040.7696 1077.0739) rotate(-270) scale(1 1)">2009-09-17</text>
    <text data-record="Text" data-layer="MECHANICAL16" x="0" y="0" fill="#26e9ff" font-family="Arial, sans-serif" font-size="7.874" font-weight="normal" font-style="normal" text-anchor="start" dominant-baseline="text-after-edge" transform="translate(1040.7699 1201.8175) rotate(-270) scale(1 1)">2009-09-17</text>
    <text data-record="Text" data-layer="MECHANICAL16" x="0" y="0" fill="#26e9ff" font-family="Arial, sans-serif" font-size="7.874" font-weight="normal" font-style="normal" text-anchor="start" dominant-baseline="text-after-edge" transform="translate(1064.9063 939.0071) rotate(-270) scale(1 1)">2009-09-17</text>
    <text data-record="Text" data-layer="MECHANICAL16" x="0" y="0" fill="#26e9ff" font-family="Arial, sans-serif" font-size="7.874" font-weight="normal" font-style="normal" text-anchor="start" dominant-baseline="text-after-edge" transform="translate(1045.3611 890.5502) rotate(-180) scale(1 1)">2009-09-17</text>
    <text data-record="Text" data-layer="MECHANICAL16" x="0" y="0" fill="#26e9ff" font-family="Arial, sans-serif" font-size="7.874" font-weight="normal" font-style="normal" text-anchor="start" dominant-baseline="text-after-edge" transform="translate(1068.2984 1427.4233) rotate(-90) scale(1 1)">2009-09-17</text>
    <text data-record="Text" data-layer="MECHANICAL16" x="0" y="0" fill="#26e9ff" font-family="Arial, sans-serif" font-size="7.874" font-weight="normal" font-style="normal" text-anchor="start" dominant-baseline="text-after-edge" transform="translate(851.0709 347.0079) rotate(-180) scale(1 1)">2009-09-17</text>
    <text data-record="Text" data-layer="MECHANICAL16" x="0" y="0" fill="#26e9ff" font-family="Arial, sans-serif" font-size="7.874" font-weight="normal" font-style="normal" text-anchor="start" dominant-baseline="text-after-edge" transform="translate(1356 1116) rotate(-180) scale(1 1)">2009-09-17</text>
    <text data-record="Text" data-layer="MECHANICAL16" x="0" y="0" fill="#26e9ff" font-family="Arial, sans-serif" font-size="7.874" font-weight="normal" font-style="normal" text-anchor="start" dominant-baseline="text-after-edge" transform="translate(758.5275 1321) rotate(-90) scale(1 1)">2011-07-18</text>
    <text data-record="Text" data-layer="MECHANICAL16" x="0" y="0" fill="#26e9ff" font-family="Arial, sans-serif" font-size="7.874" font-weight="normal" font-style="normal" text-anchor="start" dominant-baseline="text-after-edge" transform="translate(635.8897 1556.5276) rotate(-180) scale(-1 1)">2011-09-19</text>
  </g>
</svg>